<svg width="320" height="264" viewBox="0 0 320 264" fill="none" xmlns="http://www.w3.org/2000/svg">
<path opacity="0.24" d="M15.2044 217.148C9.70953 210.059 4.96286 202.078 2.50273 193.194C-2.99215 173.289 3.56819 151.916 11.6788 133.079C19.4603 115.035 33.1137 91.546 33.395 71.1431C33.4489 67.4608 32.569 63.8441 32.0422 60.2012C30.9589 52.2703 31.5449 44.1732 33.7555 36.5279C35.9661 28.8826 39.7429 21.891 44.7978 16.0866C52.8858 7.1158 63.6312 1.59605 75.1034 0.518993C111.06 -3.06495 149.925 13.1119 172.629 16.4011C198.78 20.1947 225.536 11.1595 251.586 15.7459C274.769 19.8147 297.233 7.96207 309.312 30.003C321.392 52.044 322.649 107.644 313.64 131.382C310.312 140.155 305.547 148.313 303.291 157.485C300.813 167.576 301.537 178.288 303.183 188.581C304.494 196.797 306.385 205.105 305.374 213.374C304.177 223.202 298.927 231.969 292.504 238.96C274.727 258.314 248.15 265.43 223.124 263.766C198.098 262.101 174.107 252.627 150.697 242.845C145.07 240.486 139.414 238.088 133.47 236.994C126.676 235.749 119.703 236.254 112.861 236.896C93.6352 238.671 73.5292 245.125 54.4168 245.472C39.4346 245.747 24.2668 228.85 15.2044 217.148Z" fill="#435B8C"/>
<path d="M267.663 143.306C268.453 140.993 268.16 138.412 268.507 135.968C268.629 134.801 269.025 133.688 269.656 132.738C270.184 132.027 270.887 131.497 271.682 131.213C272.477 130.928 273.33 130.9 274.14 131.133C276.276 131.788 277.635 134.219 277.875 136.63C278.114 139.041 277.462 141.439 276.743 143.732C275.241 148.495 273.445 153.141 271.913 157.891C270.65 161.822 269.836 166.907 272.781 169.547C273.535 170.202 274.481 170.654 275.121 171.46C275.649 172.2 275.99 173.079 276.109 174.009C277.264 180.699 272.913 187.198 267.729 190.92C266.005 192.151 264.084 193.213 262.03 193.272C258.786 193.357 255.835 190.834 254.333 187.683C252.83 184.531 252.537 180.869 252.597 177.318C252.733 172.8 253.113 168.296 253.734 163.827C254.165 160.263 254.608 156.62 255.829 153.344C256.757 150.815 258.667 146.792 261.324 146.202C263.982 145.613 266.232 147.5 267.663 143.306Z" fill="#435B8C"/>
<path d="M266.542 143.167C267.332 140.847 267.039 138.272 267.386 135.829C267.508 134.659 267.904 133.544 268.535 132.592C269.063 131.882 269.767 131.354 270.562 131.07C271.357 130.787 272.21 130.76 273.018 130.993C275.155 131.648 276.514 134.079 276.754 136.484C276.993 138.888 276.341 141.293 275.622 143.586C274.12 148.349 272.324 152.995 270.792 157.752C269.529 161.683 268.715 166.761 271.66 169.401C272.414 170.056 273.36 170.515 274 171.321C274.528 172.058 274.869 172.935 274.988 173.863C276.143 180.559 271.791 187.052 266.608 190.78C264.884 192.012 262.962 193.073 260.909 193.126C257.665 193.218 254.714 190.688 253.212 187.543C251.709 184.399 251.416 180.723 251.476 177.172C251.613 172.654 251.993 168.15 252.613 163.681C253.044 160.117 253.487 156.513 254.708 153.198C255.636 150.675 257.545 146.685 260.209 146.063C262.873 145.44 265.111 147.347 266.542 143.167Z" fill="url(#paint0_linear_1267_259)"/>
<path d="M273.623 113.391C267.397 124.699 269.139 139.972 261.98 150.606C259.808 153.836 256.916 156.45 254.965 159.851C253.014 163.251 252.224 167.956 254.474 171.12C260.532 167.274 262.645 159.052 265.662 152.12C265.869 151.537 266.206 151.021 266.643 150.619C268.277 149.355 270.307 151.831 270.486 154.013C270.971 159.825 266.47 164.555 264.608 170.02C262.274 176.873 263.944 185.469 259.514 190.947C258.616 192.054 257.407 192.998 256.049 193.004C255.057 192.941 254.098 192.59 253.271 191.988C250.015 189.911 247.25 187.026 245.199 183.566C243.147 180.105 241.867 176.165 241.461 172.064C240.821 165.079 241.569 156.889 245.478 151.327C248.668 146.786 248.566 141.97 250.518 136.519C252.558 130.863 255.75 125.79 259.849 121.685C261.804 119.727 263.959 118.023 266.272 116.608C267.577 115.828 273.042 114.478 273.623 113.391Z" fill="#435B8C"/>
<path d="M272.786 113.391C266.561 124.699 268.297 139.972 261.144 150.606C258.971 153.836 256.08 156.45 254.128 159.851C252.177 163.251 251.387 167.956 253.632 171.12C259.695 167.274 261.802 159.052 264.825 152.12C265.029 151.536 265.367 151.019 265.806 150.619C267.441 149.355 269.47 151.831 269.649 154.013C270.134 159.825 265.633 164.555 263.771 170.02C261.437 176.873 263.107 185.469 258.677 190.947C257.78 192.054 256.565 192.998 255.212 193.004C254.218 192.94 253.258 192.589 252.428 191.988C249.174 189.909 246.41 187.024 244.359 183.563C242.308 180.103 241.027 176.164 240.619 172.064C239.984 165.079 240.732 156.889 244.635 151.327C247.831 146.786 247.73 141.97 249.681 136.519C251.721 130.863 254.913 125.79 259.013 121.685C260.967 119.727 263.122 118.023 265.435 116.608C266.746 115.828 272.205 114.478 272.786 113.391Z" fill="url(#paint1_linear_1267_259)"/>
<path d="M50.5416 156.096C49.3444 152.165 48.8656 148.057 47.7343 144.126C46.603 140.195 44.6217 136.296 41.3176 134.331C38.0135 132.365 33.195 133.099 31.3753 136.709C30.6532 138.265 30.3917 140.028 30.6271 141.754C31.2855 147.841 35.9185 152.604 37.1515 158.586C37.8878 162.137 37.355 165.865 37.8339 169.476C38.1806 171.998 39.0071 174.413 40.2598 176.564C41.5125 178.715 43.1637 180.555 45.1065 181.964C47.3213 183.549 49.8592 184.532 52.1218 186.039C55.0981 188.035 57.5198 190.883 59.1251 194.275C61.004 192.41 62.4869 190.118 63.4693 187.558C64.4518 184.999 64.9099 182.235 64.8115 179.461C64.3027 167.412 53.6541 166.134 50.5416 156.096Z" fill="#435B8C"/>
<path d="M50.5416 156.096C49.3444 152.165 48.8656 148.057 47.7343 144.126C46.603 140.195 44.6217 136.296 41.3176 134.331C38.0135 132.365 33.195 133.099 31.3753 136.709C30.6532 138.265 30.3917 140.028 30.6271 141.754C31.2855 147.841 35.9185 152.604 37.1515 158.586C37.8878 162.137 37.355 165.865 37.8339 169.476C38.1806 171.998 39.0071 174.413 40.2598 176.564C41.5125 178.715 43.1637 180.555 45.1065 181.964C47.3213 183.549 49.8592 184.532 52.1218 186.039C55.0981 188.035 57.5198 190.883 59.1251 194.275C61.004 192.41 62.4869 190.118 63.4693 187.558C64.4518 184.999 64.9099 182.235 64.8115 179.461C64.3027 167.412 53.6541 166.134 50.5416 156.096Z" fill="url(#paint2_linear_1267_259)"/>
<path d="M63.2969 134.466C62.812 131.905 62.83 129.225 62.0997 126.729C61.3695 124.232 59.6336 121.808 57.2513 121.546C54.5098 121.244 52.1275 124.029 51.5708 126.984C51.0142 129.939 51.7923 132.979 52.5705 135.875L55.6052 147.21C56.551 150.729 57.1256 155.38 54.2584 157.281C53.5791 157.653 52.8794 157.979 52.1634 158.257C50.9684 158.864 49.9626 159.843 49.2709 161.07C48.5793 162.298 48.2322 163.721 48.2727 165.163C48.4283 168.74 50.9004 171.59 53.0613 174.29C55.2221 176.989 57.2932 180.422 56.4672 183.888C55.8686 186.457 53.6958 188.684 54.1447 191.292C54.5098 193.454 56.6647 194.797 58.6759 194.817C60.6871 194.837 62.5786 193.86 64.3922 192.904L73.0536 188.317C75.8369 186.843 78.7639 185.238 80.428 182.381C81.4613 180.401 82.0597 178.185 82.1758 175.908C82.9235 167.254 80.7986 158.594 76.1901 151.515C71.9522 145.061 64.9669 143.266 63.2969 134.466Z" fill="#435B8C"/>
<path d="M63.2969 134.466C62.812 131.905 62.83 129.225 62.0997 126.729C61.3695 124.232 59.6336 121.808 57.2513 121.546C54.5098 121.244 52.1275 124.029 51.5708 126.984C51.0142 129.939 51.7923 132.979 52.5705 135.875L55.6052 147.21C56.551 150.729 57.1256 155.38 54.2584 157.281C53.5791 157.653 52.8794 157.979 52.1634 158.257C50.9684 158.864 49.9626 159.843 49.2709 161.07C48.5793 162.298 48.2322 163.721 48.2727 165.163C48.4283 168.74 50.9004 171.59 53.0613 174.29C55.2221 176.989 57.2932 180.422 56.4672 183.888C55.8686 186.457 53.6958 188.684 54.1447 191.292C54.5098 193.454 56.6647 194.797 58.6759 194.817C60.6871 194.837 62.5786 193.86 64.3922 192.904L73.0536 188.317C75.8369 186.843 78.7639 185.238 80.428 182.381C81.4613 180.401 82.0597 178.185 82.1758 175.908C82.9235 167.254 80.7986 158.594 76.1901 151.515C71.9522 145.061 64.9669 143.266 63.2969 134.466Z" fill="url(#paint3_linear_1267_259)"/>
<path d="M240.864 53.2734H80.8355C75.5826 53.2734 71.3242 57.9347 71.3242 63.6846V169.519C71.3242 175.269 75.5826 179.93 80.8355 179.93H240.864C246.116 179.93 250.375 175.269 250.375 169.519V63.6846C250.375 57.9347 246.116 53.2734 240.864 53.2734Z" fill="#435B8C"/>
<path d="M235.597 58.1758H84.5898C79.6344 58.1758 75.6172 62.573 75.6172 67.9972V167.863C75.6172 173.287 79.6344 177.684 84.5898 177.684H235.597C240.553 177.684 244.57 173.287 244.57 167.863V67.9972C244.57 62.573 240.553 58.1758 235.597 58.1758Z" fill="white"/>
<g opacity="0.52">
<path opacity="0.52" d="M133.791 84.1484H99.8164V86.8741H133.791V84.1484Z" fill="#435B8C"/>
<path opacity="0.52" d="M120.551 89.4219H99.8164V91.9837H120.551V89.4219Z" fill="#435B8C"/>
<path opacity="0.52" d="M194.174 89.4219H128.918V91.9968H194.174V89.4219Z" fill="#435B8C"/>
<path opacity="0.52" d="M139.114 94.7188H110.598V97.4182H139.114V94.7188Z" fill="#435B8C"/>
<path opacity="0.52" d="M153.725 99.9922H119.75V102.718H153.725V99.9922Z" fill="#435B8C"/>
<path opacity="0.52" d="M184.412 99.9922H155.938V103.019H184.412V99.9922Z" fill="#435B8C"/>
<path opacity="0.52" d="M145.935 105.273H119.699V107.835H145.935V105.273Z" fill="#435B8C"/>
<path opacity="0.52" d="M202.584 105.273H148.449V108.11H202.584V105.273Z" fill="#435B8C"/>
<path opacity="0.52" d="M133.791 112.414H99.8164V115.14H133.791V112.414Z" fill="#435B8C"/>
<path opacity="0.52" d="M120.551 117.688H99.8164V120.249H120.551V117.688Z" fill="#435B8C"/>
<path opacity="0.52" d="M194.174 117.688H128.918V120.262H194.174V117.688Z" fill="#435B8C"/>
<path opacity="0.52" d="M139.114 122.969H110.598V125.668H139.114V122.969Z" fill="#435B8C"/>
<path opacity="0.52" d="M153.725 128.258H119.75V130.983H153.725V128.258Z" fill="#435B8C"/>
<path opacity="0.52" d="M184.412 128.258H155.938V131.285H184.412V128.258Z" fill="#435B8C"/>
<path opacity="0.52" d="M145.935 133.539H119.699V136.101H145.935V133.539Z" fill="#435B8C"/>
<path opacity="0.52" d="M202.584 133.539H148.449V136.376H202.584V133.539Z" fill="#435B8C"/>
<path opacity="0.52" d="M133.791 140.68H99.8164V143.405H133.791V140.68Z" fill="#435B8C"/>
<path opacity="0.52" d="M120.551 145.953H99.8164V148.515H120.551V145.953Z" fill="#435B8C"/>
<path opacity="0.52" d="M194.174 145.953H128.918V148.528H194.174V145.953Z" fill="#435B8C"/>
<path opacity="0.52" d="M139.114 151.234H110.598V153.934H139.114V151.234Z" fill="#435B8C"/>
<path opacity="0.52" d="M153.725 156.508H119.75V159.233H153.725V156.508Z" fill="#435B8C"/>
<path opacity="0.52" d="M184.412 156.508H155.938V159.535H184.412V156.508Z" fill="#435B8C"/>
<path opacity="0.52" d="M145.935 161.805H119.699V164.367H145.935V161.805Z" fill="#435B8C"/>
<path opacity="0.52" d="M202.584 161.805H148.449V164.642H202.584V161.805Z" fill="#435B8C"/>
</g>
<path opacity="0.24" d="M40.5116 121.676L101.847 121.676C106.561 121.676 110.383 117.493 110.383 112.333V99.5366C110.383 94.3765 106.561 90.1934 101.847 90.1934L40.5116 90.1934C35.7975 90.1934 31.976 94.3765 31.976 99.5366V112.333C31.976 117.493 35.7975 121.676 40.5116 121.676Z" fill="#435B8C"/>
<path d="M77.06 178.977L43.7734 206.41H276.809L244.265 178.57L77.06 178.977Z" fill="#435B8C"/>
<path d="M77.06 178.977L43.7734 206.41H276.809L244.265 178.57L77.06 178.977Z" fill="url(#paint4_linear_1267_259)"/>
<path d="M228.67 190.079C229.915 190.518 230.861 192.215 230.154 193.427C229.616 194.35 228.257 194.953 228.532 196.008L231.717 197.764C232.073 197.912 232.376 198.183 232.578 198.537C233.033 199.618 231.549 200.391 230.466 200.503L205.487 202.698C202.135 202.993 198.723 203.281 195.449 202.442C193.231 201.778 191.084 200.858 189.044 199.697L179.886 194.934C178.527 194.226 177.109 193.466 176.211 192.142C175.313 190.819 175.134 188.749 176.211 187.628C176.989 186.842 178.132 186.724 179.204 186.658C187.75 186.134 196.32 186.318 204.841 187.209C208.983 187.646 213.109 188.248 217.219 189.017C219.266 189.397 221.481 190.223 223.54 190.328C225.204 190.406 227.042 189.495 228.67 190.079Z" fill="url(#paint5_linear_1267_259)"/>
<path d="M53.3087 216.437L43.7734 206.406H276.809L268.202 217.053L53.3087 216.437Z" fill="#435B8C"/>
<path d="M53.3087 216.437L43.7734 206.406H276.809L268.202 217.053L53.3087 216.437Z" fill="url(#paint6_linear_1267_259)"/>
<path opacity="0.58" d="M134.102 202.111L144.014 193.508L180.299 193.305L190.774 201.901L134.102 202.111Z" fill="#435B8C"/>
<path opacity="0.58" d="M65.0938 191.94L253.614 191.665L243.516 182.656H76.6881L65.0938 191.94Z" fill="#435B8C"/>
<path d="M181.116 190.619C182.408 192.069 183.893 193.298 185.521 194.262C186.383 194.832 187.538 195.382 188.316 194.688C189.095 193.993 188.867 192.722 188.472 191.785C187.46 189.354 185.078 186.747 182.558 186.314C179.739 185.829 179.464 188.568 181.116 190.619Z" fill="#606161"/>
<path d="M181.116 190.619C182.408 192.069 183.893 193.298 185.521 194.262C186.383 194.832 187.538 195.382 188.316 194.688C189.095 193.993 188.867 192.722 188.472 191.785C187.46 189.354 185.078 186.747 182.558 186.314C179.739 185.829 179.464 188.568 181.116 190.619Z" fill="url(#paint7_linear_1267_259)"/>
<path d="M194.529 153.435L187.43 171.63L176.655 174.696L175.398 182.041L193.164 178.214L201.544 167.194C201.544 167.194 202.741 154.287 200.796 149.281C199.898 146.935 195.439 151.089 194.529 153.435Z" fill="#435B8C"/>
<g opacity="0.24">
<path opacity="0.24" d="M296.634 24.0781H203.933C199.711 24.0781 196.289 27.8241 196.289 32.445V70.2174C196.289 74.8383 199.711 78.5843 203.933 78.5843H296.634C300.855 78.5843 304.277 74.8383 304.277 70.2174V32.445C304.277 27.8241 300.855 24.0781 296.634 24.0781Z" fill="#435B8C"/>
<path opacity="0.24" d="M196.289 89.8158V70.0156H211.583L196.289 89.8158Z" fill="#435B8C"/>
</g>
<path d="M296.634 19.0781H203.933C199.711 19.0781 196.289 22.8241 196.289 27.445V65.2174C196.289 69.8383 199.711 73.5843 203.933 73.5843H296.634C300.855 73.5843 304.277 69.8383 304.277 65.2174V27.445C304.277 22.8241 300.855 19.0781 296.634 19.0781Z" fill="white"/>
<path d="M196.289 84.8158V65.0156H211.583L196.289 84.8158Z" fill="white"/>
<path d="M39.1093 118.918L100.445 118.918C105.159 118.918 108.98 114.735 108.98 109.575V96.7787C108.98 91.6187 105.159 87.4356 100.445 87.4356L39.1093 87.4356C34.3952 87.4356 30.5736 91.6187 30.5736 96.7787V109.575C30.5736 114.735 34.3952 118.918 39.1093 118.918Z" fill="white"/>
<g opacity="0.52">
<path opacity="0.52" d="M60.9202 94.375H42.6758V95.8427H60.9202V94.375Z" fill="#435B8C"/>
<path opacity="0.52" d="M53.8152 97.207H42.6758V98.583H53.8152V97.207Z" fill="#435B8C"/>
<path opacity="0.52" d="M93.3549 97.207H58.3086V98.5895H93.3549V97.207Z" fill="#435B8C"/>
<path opacity="0.52" d="M63.7802 100.051H48.4688V101.499H63.7802V100.051Z" fill="#435B8C"/>
<path opacity="0.52" d="M71.6273 102.887H53.3828V104.354H71.6273V102.887Z" fill="#435B8C"/>
<path opacity="0.52" d="M88.1138 102.887H72.8203V104.512H88.1138V102.887Z" fill="#435B8C"/>
<path opacity="0.52" d="M67.4497 105.715H53.3594V107.091H67.4497V105.715Z" fill="#435B8C"/>
<path opacity="0.52" d="M97.8695 105.715H68.7969V107.241H97.8695V105.715Z" fill="#435B8C"/>
<path opacity="0.52" d="M60.9202 109.551H42.6758V111.018H60.9202V109.551Z" fill="#435B8C"/>
<path opacity="0.52" d="M53.8152 112.387H42.6758V113.763H53.8152V112.387Z" fill="#435B8C"/>
<path opacity="0.52" d="M93.3549 112.387H58.3086V113.769H93.3549V112.387Z" fill="#435B8C"/>
</g>
<path opacity="0.24" d="M148.922 74.4717L149.245 72.6437C149.305 72.303 149.359 71.9557 149.419 71.5757C149.946 71.674 150.448 71.7592 150.951 71.8706C150.985 71.8849 151.021 71.8915 151.057 71.89C151.093 71.8884 151.129 71.8787 151.161 71.8615C151.194 71.8443 151.223 71.82 151.246 71.7899C151.27 71.7599 151.288 71.7249 151.298 71.6871C151.526 71.2023 151.777 70.7305 152.047 70.2719C152.071 70.2462 152.091 70.2152 152.105 70.1808C152.118 70.1465 152.125 70.1094 152.125 70.072C152.125 70.0346 152.118 69.9976 152.105 69.9633C152.091 69.9289 152.071 69.8979 152.047 69.8722C151.711 69.4463 151.382 69.0073 151.035 68.5618L153.214 66.5569C153.555 66.9959 153.89 67.4217 154.207 67.8673C154.227 67.9036 154.253 67.9352 154.284 67.9601C154.315 67.9849 154.351 68.0025 154.389 68.0117C154.426 68.0209 154.465 68.0216 154.503 68.0136C154.541 68.0057 154.577 67.9893 154.609 67.9656C155.046 67.7525 155.496 67.5708 155.955 67.4217C156.171 67.3562 156.219 67.2645 156.213 67.0483C156.213 66.4979 156.213 65.9541 156.213 65.3906H159.062C159.062 65.9475 159.062 66.4979 159.062 67.0548C159.062 67.2776 159.116 67.3562 159.319 67.4217C159.778 67.5726 160.228 67.7542 160.666 67.9656C160.698 67.9891 160.735 68.005 160.773 68.0125C160.811 68.0199 160.85 68.0187 160.887 68.0089C160.925 67.999 160.961 67.9808 160.991 67.9553C161.022 67.9298 161.048 67.8976 161.067 67.8607C161.384 67.4283 161.714 67.009 162.055 66.5503L164.24 68.5552L163.12 70.0163C163.42 70.6322 163.719 71.2154 164.006 71.7854C164.041 71.8203 164.083 71.846 164.129 71.8608C164.175 71.8755 164.223 71.8789 164.269 71.8706L165.826 71.5757L166.323 74.6421C165.79 74.7469 165.275 74.8386 164.766 74.95C164.682 74.95 164.557 75.0548 164.545 75.1269C164.443 75.7821 164.359 76.4373 164.269 77.0925L165.772 78.0491L164.347 80.7485L162.833 79.7985C162.342 80.2244 161.869 80.6306 161.408 81.0565C161.382 81.0927 161.363 81.1354 161.355 81.1811C161.347 81.2267 161.348 81.2739 161.36 81.3186C161.534 81.8689 161.72 82.4193 161.905 82.9893L159.23 84.0573C159.068 83.5593 158.888 83.0745 158.745 82.5765C158.661 82.2882 158.547 82.2031 158.26 82.2293C157.798 82.2653 157.333 82.2653 156.871 82.2293C156.704 82.2293 156.638 82.2686 156.59 82.439C156.422 82.9697 156.237 83.5004 156.045 84.0638L153.34 83.0286L153.938 81.2203L152.418 79.8116L150.891 80.7747L149.467 78.0753C149.934 77.7805 150.377 77.4922 150.826 77.217C150.858 77.204 150.887 77.1841 150.912 77.1583C150.936 77.1326 150.956 77.1016 150.969 77.0673C150.983 77.033 150.99 76.996 150.99 76.9587C150.99 76.9213 150.983 76.8844 150.969 76.8501C150.862 76.3462 150.778 75.8367 150.718 75.3235C150.718 75.0745 150.64 74.9566 150.383 74.9238C149.892 74.8583 149.401 74.7469 148.91 74.6486L148.922 74.4717ZM157.643 70.7502C156.924 70.7399 156.219 70.963 155.616 71.3913C155.012 71.8196 154.539 72.4338 154.254 73.1566C153.969 73.8793 153.887 74.6781 154.016 75.4522C154.146 76.2263 154.482 76.941 154.983 77.5061C155.483 78.0712 156.125 78.4614 156.828 78.6274C157.531 78.7934 158.263 78.7279 158.932 78.439C159.601 78.1502 160.176 77.651 160.586 77.0044C160.996 76.3577 161.222 75.5927 161.235 74.8059C161.248 73.7474 160.877 72.7266 160.204 71.9665C159.531 71.2065 158.61 70.7691 157.643 70.7502V70.7502Z" fill="#435B8C"/>
<path d="M217.766 46.3352L228.821 40.0977V41.8995L219.501 46.9904V47.0362L228.821 52.1533V53.9551L217.766 47.7176V46.3352Z" fill="#435B8C"/>
<path d="M232.145 35.4336H234.24V43.296H234.287C234.644 42.6165 235.163 42.0569 235.79 41.6777C236.442 41.2594 237.183 41.0337 237.939 41.0225C239.483 41.0225 241.961 42.0642 241.961 46.4213V53.9561H239.866V46.703C239.866 44.6654 239.178 42.9422 237.196 42.9422C236.566 42.9523 235.955 43.18 235.449 43.593C234.944 44.006 234.571 44.5831 234.383 45.2419C234.268 45.5922 234.219 45.9645 234.24 46.3361V53.9561H232.145V35.4336Z" fill="#435B8C"/>
<path d="M247.808 37.6992V41.329H250.801V43.0588H247.808V49.8794C247.808 51.4453 248.215 52.3364 249.382 52.3364C249.786 52.3408 250.188 52.288 250.58 52.1792L250.675 53.9023C250.077 54.1257 249.446 54.23 248.814 54.2103C248.395 54.2384 247.976 54.1669 247.586 54.0006C247.195 53.8344 246.842 53.5773 246.551 53.2471C245.953 52.5919 245.737 51.4453 245.737 49.9711V43.0588H243.941V41.329H245.737V38.302L247.808 37.6992Z" fill="#435B8C"/>
<path d="M253.176 44.7448C253.176 43.4344 253.146 42.373 253.074 41.3312H254.912L255.008 43.3623H255.079C255.425 42.6444 255.948 42.0468 256.588 41.6369C257.228 41.227 257.96 41.0213 258.701 41.0429C259.417 41.0367 260.118 41.2777 260.702 41.7316C261.287 42.1856 261.726 42.8295 261.957 43.572H262.005C262.321 42.9293 262.76 42.3685 263.292 41.9274C264.02 41.3135 264.923 41.0003 265.842 41.0429C267.362 41.0429 269.631 42.1371 269.631 46.5204V53.9569H267.578V46.8087C267.578 44.3779 266.77 42.9168 265.076 42.9168C264.516 42.9482 263.979 43.1676 263.538 43.5451C263.097 43.9227 262.772 44.44 262.609 45.0265C262.5 45.3969 262.443 45.7837 262.442 46.1731V53.9569H260.395V46.3893C260.395 44.3779 259.581 42.9168 258 42.9168C257.234 43.0134 256.528 43.4156 256.015 44.0465C255.503 44.6774 255.221 45.4928 255.223 46.3369V53.9569H253.176V44.7448Z" fill="#435B8C"/>
<path d="M273.062 35.4336H275.157V53.9561H273.062V35.4336Z" fill="#435B8C"/>
<path d="M289.583 47.7427L278.527 53.954V52.1522L287.913 47.0351V46.9892L278.527 41.8721V40.0703L289.583 46.2816V47.7427Z" fill="#435B8C"/>
<path d="M181.262 175.74C179.407 176.12 177.605 177.961 177.629 180.28C177.629 182.141 178.772 183.668 179.85 184.971C186.506 193.004 194.814 200.126 204.152 200.12C207.205 200.12 210.221 199.34 213.274 199.124C215.297 198.98 217.392 199.071 219.26 198.082C222.037 196.608 223.665 193.096 225.096 189.807L229.633 179.448C230.698 177.004 231.758 173.971 230.579 171.586C229.501 169.43 227.077 169.044 225.042 169.404C220.96 170.125 217.326 172.85 213.603 175.045C208.946 177.797 202.709 181.296 197.4 180.673C192.091 180.051 186.715 174.619 181.262 175.74Z" fill="#606161"/>
<path d="M195.517 176.251C196.271 179.94 197.42 183.766 200.048 186.216C202.532 188.542 205.956 189.263 209.224 189.394C212.061 189.506 215.006 189.204 217.484 187.691C221.165 185.43 219.819 174.253 220.172 169.646C220.525 165.04 224.817 165.473 223.53 161.07C222.135 156.313 218.424 152.985 215.245 149.401C214.385 148.391 213.373 147.551 212.253 146.918C209.757 145.607 206.83 145.712 204.046 145.889C202.951 145.954 199.186 148.11 198.551 149.073C192.769 157.768 193.398 165.964 195.517 176.251Z" fill="#435B8C"/>
<path d="M197.941 133.681C197.598 133.999 197.307 134.377 197.079 134.801C196.96 135.167 196.918 135.558 196.954 135.944C196.99 136.33 197.104 136.703 197.288 137.035C197.662 137.694 197.992 138.382 198.276 139.093C198.683 140.436 198.456 142.192 199.521 142.984C200.275 143.541 201.407 143.338 202.023 144.066C202.747 144.93 202.292 146.582 203.166 147.256C203.474 147.451 203.822 147.557 204.178 147.564C205.181 147.745 206.204 147.745 207.207 147.564C207.709 147.471 208.184 147.249 208.592 146.916C209.001 146.584 209.332 146.15 209.559 145.651C209.758 145.038 209.847 144.388 209.822 143.738L210.032 134.441C210.116 132.969 210.044 131.491 209.816 130.038C209.588 128.571 208.898 127.238 207.865 126.27C206.908 125.507 205.768 125.065 204.585 124.999C203.497 124.817 202.385 125.07 201.454 125.713C199.192 127.541 199.928 131.473 197.941 133.681Z" fill="url(#paint8_linear_1267_259)"/>
<path d="M201.425 129.07C202.131 129.587 202.957 129.882 203.675 130.38C204.288 130.819 204.808 131.397 205.198 132.076C205.588 132.754 205.841 133.517 205.938 134.311C206.302 133.752 206.702 133.222 207.135 132.726C207.611 133.174 207.999 133.722 208.278 134.337C208.41 134.65 208.454 134.998 208.403 135.338C208.353 135.677 208.212 135.993 207.997 136.244C207.722 136.513 207.321 136.65 207.159 137.017C206.872 137.672 207.584 138.288 207.925 138.911C208.32 139.645 208.212 140.555 208.224 141.407C208.236 142.259 208.482 143.255 209.212 143.55C210.182 143.936 211.074 142.816 211.606 141.839C212.571 140.219 213.315 138.453 213.815 136.598C214.312 134.713 214.115 132.69 213.264 130.963C212.774 130.066 212.067 129.325 211.63 128.388C210.954 126.907 211.086 125.112 210.367 123.631C209.236 121.305 204.196 119.419 201.856 120.198C198.312 121.384 198.803 127.176 201.425 129.07Z" fill="#606161"/>
<path d="M171.036 176.27C169.7 176.627 168.435 177.246 167.301 178.098C166.351 178.921 165.489 179.859 164.733 180.896C164.608 181.013 164.511 181.162 164.449 181.33C164.388 181.498 164.364 181.679 164.38 181.859C164.418 181.967 164.475 182.065 164.548 182.148C164.621 182.231 164.708 182.298 164.805 182.344C165.679 182.842 166.738 182.488 167.684 182.18C168.668 181.851 169.667 181.58 170.677 181.367C171.216 181.249 171.904 181.223 172.167 181.747C172.275 181.964 172.281 182.226 172.395 182.442C172.509 182.612 172.67 182.737 172.854 182.799C173.039 182.862 173.236 182.858 173.418 182.789C173.777 182.632 174.102 182.393 174.37 182.088L176.704 179.742C177.002 179.471 177.264 179.155 177.483 178.806C177.85 178.074 177.949 177.216 177.758 176.407C177.393 175.182 177.518 175.471 176.327 175.398C174.533 175.394 172.749 175.688 171.036 176.27V176.27Z" fill="url(#paint9_linear_1267_259)"/>
<path d="M195.258 175.234L200.364 165.406L200.034 186.189C200.034 186.189 196.658 184.65 195.258 175.234Z" fill="url(#paint10_linear_1267_259)"/>
<defs>
<linearGradient id="paint0_linear_1267_259" x1="270.343" y1="159.291" x2="229.179" y2="188.449" gradientUnits="userSpaceOnUse">
<stop stop-color="#010101" stop-opacity="0"/>
<stop offset="0.95" stop-color="#010101"/>
</linearGradient>
<linearGradient id="paint1_linear_1267_259" x1="267.105" y1="150.599" x2="187.817" y2="194.842" gradientUnits="userSpaceOnUse">
<stop stop-color="#010101" stop-opacity="0"/>
<stop offset="0.95" stop-color="#010101"/>
</linearGradient>
<linearGradient id="paint2_linear_1267_259" x1="41.1141" y1="160.755" x2="86.6978" y2="175.329" gradientUnits="userSpaceOnUse">
<stop stop-color="#010101" stop-opacity="0"/>
<stop offset="0.95" stop-color="#010101"/>
</linearGradient>
<linearGradient id="paint3_linear_1267_259" x1="51.511" y1="155.715" x2="151.075" y2="188.809" gradientUnits="userSpaceOnUse">
<stop stop-color="#010101" stop-opacity="0"/>
<stop offset="0.95" stop-color="#010101"/>
</linearGradient>
<linearGradient id="paint4_linear_1267_259" x1="159.95" y1="165.84" x2="160.402" y2="210.753" gradientUnits="userSpaceOnUse">
<stop stop-color="white" stop-opacity="0"/>
<stop offset="0.95" stop-color="white"/>
</linearGradient>
<linearGradient id="paint5_linear_1267_259" x1="203.554" y1="208.011" x2="206.737" y2="136.992" gradientUnits="userSpaceOnUse">
<stop stop-color="#010101" stop-opacity="0"/>
<stop offset="0.95" stop-color="#010101"/>
</linearGradient>
<linearGradient id="paint6_linear_1267_259" x1="158.418" y1="225.053" x2="166.889" y2="154.583" gradientUnits="userSpaceOnUse">
<stop stop-color="#010101" stop-opacity="0"/>
<stop offset="0.95" stop-color="#010101"/>
</linearGradient>
<linearGradient id="paint7_linear_1267_259" x1="180.098" y1="190.632" x2="188.819" y2="190.632" gradientUnits="userSpaceOnUse">
<stop stop-color="#010101" stop-opacity="0"/>
<stop offset="0.95" stop-color="#010101"/>
</linearGradient>
<linearGradient id="paint8_linear_1267_259" x1="196.929" y1="136.334" x2="210.05" y2="136.334" gradientUnits="userSpaceOnUse">
<stop stop-color="#E5C6D6"/>
<stop offset="0.42" stop-color="#EAD4D0"/>
<stop offset="1" stop-color="#F0E9CB"/>
</linearGradient>
<linearGradient id="paint9_linear_1267_259" x1="164.356" y1="179.107" x2="177.866" y2="179.107" gradientUnits="userSpaceOnUse">
<stop stop-color="#E5C6D6"/>
<stop offset="0.42" stop-color="#EAD4D0"/>
<stop offset="1" stop-color="#F0E9CB"/>
</linearGradient>
<linearGradient id="paint10_linear_1267_259" x1="194.318" y1="180.469" x2="211.887" y2="168.888" gradientUnits="userSpaceOnUse">
<stop stop-color="#010101" stop-opacity="0"/>
<stop offset="0.95" stop-color="#010101"/>
</linearGradient>
</defs>
</svg>
