<svg width="320" height="264" viewBox="0 0 320 264" fill="none" xmlns="http://www.w3.org/2000/svg">
<g clip-path="url(#clip0_1266_74)">
<path opacity="0.18" d="M285.577 60.04C288.634 79.0943 271.157 97.885 276.557 116.289C279.664 126.919 288.988 133.549 297.025 140.386C309.798 151.229 321.584 166.984 319.821 184.571C317.913 203.541 301.411 216.952 285.01 223.42C223.487 247.658 12.815 290.235 0.329546 182.76C-2.0479 162.217 8.7322 141.862 20.8292 125.941C30.4517 113.282 84.0492 56.3873 103.64 45.7652C190.906 -1.56651 276.588 3.9529 285.577 60.04Z" fill="#435B8C"/>
<path opacity="0.05" d="M178.693 32.5331C178.693 32.5331 294.069 31.4318 274.716 83.0923C259.725 123.063 276.856 125.993 282.213 145.324C287.57 164.655 281.335 186.677 268.43 197.112C255.525 207.547 203.878 205.702 203.878 221.15C203.878 236.598 189.504 230.96 189.504 230.96H99.0293L115.555 176.412L178.693 32.5331Z" fill="#000405"/>
<path d="M196.151 224.918H99.0293V230.977H196.151V224.918Z" fill="#435B8C"/>
<path d="M181.315 176.426H115.555V224.918H181.315V176.426Z" fill="#435B8C"/>
<path d="M181.315 176.426H115.555V224.918H181.315V176.426Z" fill="#435B8C"/>
<path d="M181.315 176.426H115.555V224.918H181.315V176.426Z" fill="url(#paint0_linear_1266_74)"/>
<path d="M268.431 39.2318V166.229C268.431 169.869 267.775 173.474 266.502 176.837C265.229 180.199 263.363 183.255 261.011 185.828C258.659 188.401 255.867 190.441 252.794 191.833C249.721 193.224 246.428 193.939 243.102 193.937H50.3968C43.6834 193.937 37.245 191.018 32.4979 185.822C27.7509 180.625 25.084 173.578 25.084 166.229V39.2318C25.0835 35.5926 25.7378 31.989 27.0096 28.6266C28.2814 25.2642 30.1458 22.209 32.4963 19.6353C34.8468 17.0616 37.6375 15.0199 40.7088 13.6267C43.7802 12.2335 47.0722 11.5162 50.3968 11.5156H243.079C246.405 11.5112 249.7 12.2242 252.775 13.614C255.849 15.0038 258.644 17.0431 260.998 19.6155C263.352 22.1878 265.22 25.2427 266.496 28.6056C267.771 31.9686 268.429 35.5736 268.431 39.2148V39.2318Z" fill="#435B8C"/>
<path d="M268.431 39.2318V159.57H25.1113V39.2318C25.1108 35.5926 25.7651 31.989 27.037 28.6266C28.3088 25.2642 30.1732 22.209 32.5237 19.6353C34.8742 17.0616 37.6648 15.0199 40.7362 13.6267C43.8075 12.2335 47.0995 11.5162 50.4242 11.5156H243.079C246.406 11.5112 249.7 12.2242 252.775 13.614C255.849 15.0038 258.644 17.0431 260.998 19.6155C263.352 22.1878 265.221 25.2427 266.496 28.6056C267.771 31.9686 268.429 35.5736 268.431 39.2148V39.2318Z" fill="url(#paint1_linear_1266_74)"/>
<path d="M226.401 36.625H54.4863V73.7344H226.401V36.625Z" fill="url(#paint2_linear_1266_74)"/>
<path d="M132.577 78.4688H54.4863V153.21H132.577V78.4688Z" fill="url(#paint3_linear_1266_74)"/>
<path d="M225.014 78.4688H138.094V103.429H225.014V78.4688Z" fill="url(#paint4_linear_1266_74)"/>
<path d="M225.014 108.168H138.094V133.129H225.014V108.168Z" fill="url(#paint5_linear_1266_74)"/>
<path d="M225.014 137.867H138.094V153.214H225.014V137.867Z" fill="url(#paint6_linear_1266_74)"/>
<path d="M187.629 242.572H191.339L179.906 85.1406L176.771 86.0634L177.482 96.3495L166.216 97.1277L165.35 85.1406L162.215 86.0634L173.061 242.572H176.771L175.477 224.712L186.355 223.981L186.191 221.153L175.271 221.889L174.343 209.132L185.508 208.358L185.348 205.539L174.141 206.296L173.216 193.513L184.164 192.752L187.629 242.572ZM166.422 99.9342L177.688 99.1475L178.573 111.93L167.358 112.721L166.422 99.9342ZM167.552 115.523L178.76 114.736L179.646 127.574L168.493 128.339L167.552 115.523ZM168.691 131.141L179.84 130.359L180.788 144.004L169.658 144.744L168.691 131.141ZM169.879 147.555L180.982 146.828L181.806 158.734L170.746 159.495L169.879 147.555ZM170.948 162.319L182 161.549L182.885 174.348L171.876 175.11L170.948 162.319ZM173.01 190.711L172.078 177.912L183.084 177.142L183.969 189.95L173.01 190.711Z" fill="#435B8C"/>
<path d="M93.16 95.1377V85.1406H90.8719V95.1377H79.7422V98.2333H90.8719V236.64H93.16V114.349L106.725 98.2333H117.113V95.1206L93.16 95.1377ZM93.16 109.974V98.2333H103.478L93.16 109.974Z" fill="#435B8C"/>
<path d="M206.174 95.1377V85.1406H203.886V95.1377H181.902V98.2333H191.447L203.878 112.989V236.64H206.174V98.2333H219.281V95.1206L206.174 95.1377ZM203.886 108.69L194.691 98.2333H203.878L203.886 108.69Z" fill="#435B8C"/>
<g opacity="0.61">
<path opacity="0.61" d="M187.629 242.572H191.339L179.906 85.1406L176.771 86.0634L177.482 96.3495L166.216 97.1277L165.35 85.1406L162.215 86.0634L173.061 242.572H176.771L175.477 224.712L186.355 223.981L186.191 221.153L175.271 221.889L174.343 209.132L185.508 208.358L185.348 205.539L174.141 206.296L173.216 193.513L184.164 192.752L187.629 242.572ZM166.422 99.9342L177.688 99.1475L178.573 111.93L167.358 112.721L166.422 99.9342ZM167.552 115.523L178.76 114.736L179.646 127.574L168.493 128.339L167.552 115.523ZM168.691 131.141L179.84 130.359L180.788 144.004L169.658 144.744L168.691 131.141ZM169.879 147.555L180.982 146.828L181.806 158.734L170.746 159.495L169.879 147.555ZM170.948 162.319L182 161.549L182.885 174.348L171.876 175.11L170.948 162.319ZM173.01 190.711L172.078 177.912L183.084 177.142L183.969 189.95L173.01 190.711Z" fill="url(#paint7_linear_1266_74)"/>
<path opacity="0.61" d="M93.16 95.1377V85.1406H90.8719V95.1377H79.7422V98.2333H90.8719V236.64H93.16V114.349L106.725 98.2333H117.113V95.1206L93.16 95.1377ZM93.16 109.974V98.2333H103.478L93.16 109.974Z" fill="url(#paint8_linear_1266_74)"/>
<path opacity="0.61" d="M206.174 95.1377V85.1406H203.886V95.1377H181.902V98.2333H191.447L203.878 112.989V236.64H206.174V98.2333H219.281V95.1206L206.174 95.1377ZM203.886 108.69L194.691 98.2333H203.878L203.886 108.69Z" fill="url(#paint9_linear_1266_74)"/>
</g>
<path d="M182.244 126.996L181.979 129.59H176.506C176.506 129.59 176.059 128.093 177.058 127.719C177.605 127.507 178.17 127.352 178.743 127.255L182.244 126.996Z" fill="#435B8C"/>
<path d="M174.611 73.2732C174.359 75.5946 174.49 77.9467 174.999 80.2171C175.305 80.6477 175.709 80.9815 176.171 81.1841C176.634 81.3866 177.137 81.4506 177.629 81.3695V83.0959H180.248L181.366 74.4511C181.366 74.4511 177.245 68.6935 174.611 73.2732Z" fill="url(#paint10_linear_1266_74)"/>
<path d="M176.456 74.1362C176.869 75.0394 177.132 76.0155 177.233 77.0192C177.233 77.0192 177.758 75.8668 178.01 76.4409C178.263 77.0149 177.486 78.1716 177.486 78.1716L178.263 79.6088H180.924C180.924 79.6088 182.241 73.3027 181.503 72.4353C180.765 71.5678 180.267 71.5848 180.267 71.5848C180.267 71.5848 180.267 70.7344 178.686 70.7344C177.105 70.7344 175.003 70.7344 174.215 72.1759C173.426 73.6174 173.162 73.0263 173.162 73.0263C173.162 73.0263 173.609 74.0937 174.293 73.8343C174.456 73.7917 176.192 73.273 176.456 74.1362Z" fill="#333333"/>
<path d="M177.637 83.0938H182.061C182.061 83.0938 183.93 83.519 184.19 88.4218C184.35 91.7717 184.35 95.1285 184.19 98.4784V106.515L182.061 105.737L174.164 107.667L173.387 95.8845C172.568 95.775 171.78 95.4718 171.078 94.996C170.377 94.5202 169.778 93.8832 169.323 93.129C168.748 92.1855 168.387 91.1058 168.268 89.9791C168.149 88.8523 168.276 87.7108 168.64 86.6486L174.137 89.8165L174.428 88.1157C174.729 86.2725 175.672 84.6292 177.058 83.5317L177.637 83.0938Z" fill="#435B8C"/>
<path d="M169.374 85.055L168.061 80.4456L173.297 79.5781L175.061 85.8587L174.136 89.8175L170.997 88.0273L169.374 85.055Z" fill="#FCFDFF"/>
<path d="M168.32 87.6326C168.41 86.6685 168.779 85.761 169.373 85.043L169.637 85.3279H171.312L171.576 86.4547L170.97 87.403C170.605 87.739 170.154 87.9418 169.679 87.983C169.204 88.0241 168.729 87.9016 168.32 87.6326Z" fill="url(#paint11_linear_1266_74)"/>
<path d="M170.998 88.0273L172.245 91.6503L174.137 89.8175L170.998 88.0273Z" fill="url(#paint12_linear_1266_74)"/>
<path opacity="0.61" d="M173.297 95.6797C173.297 95.6797 177.527 93.9491 177.527 91.0703L178.584 104.299L174.105 105.46L173.297 95.6797Z" fill="url(#paint13_linear_1266_74)"/>
<path d="M174.085 105.449L173.297 119.796L174.35 127.284H177.508L178.032 114.927L179.874 109.74L178.561 127.284L182.243 127.574L184.058 104.297L181.979 103.434L174.085 105.449Z" fill="#333333"/>
<path d="M177.35 127.283V130.153L171.799 127.985C171.799 127.985 171.799 126.399 172.875 126.399C173.458 126.395 174.039 126.453 174.611 126.573L177.35 127.283Z" fill="#435B8C"/>
<path d="M104.885 241.074L105.157 243.66H110.634C110.634 243.66 111.081 242.163 110.079 241.789C109.533 241.576 108.97 241.423 108.397 241.329L104.885 241.074Z" fill="#435B8C"/>
<path d="M108.687 186.798C109.639 188.874 110.245 191.119 110.478 193.427C110.163 195.069 108.318 195.443 108.318 195.443L108.819 197.084L106.189 198.092L102.607 190.315C102.607 190.315 104.845 183.371 108.687 186.798Z" fill="url(#paint14_linear_1266_74)"/>
<path d="M107.188 188.27C107.036 189.223 107.036 190.197 107.188 191.149C107.188 191.149 106.345 190.256 106.267 190.89C106.19 191.523 107.266 192.331 107.266 192.331L106.951 193.973L104.558 194.865C104.558 194.865 101.45 189.338 101.924 188.27C102.398 187.203 102.635 187.088 102.635 187.088C102.635 187.088 102.371 186.28 103.87 185.706C105.37 185.132 107.367 184.43 108.532 185.506C109.698 186.582 109.767 185.932 109.767 185.932C109.767 185.932 109.767 187.084 108.924 187.114C109.006 187.233 107.188 187.348 107.188 188.27Z" fill="#333333"/>
<path d="M109.634 197.113H105.213C105.213 197.113 103.345 197.539 103.08 202.441C102.921 205.79 102.921 209.145 103.08 212.494V220.53L105.213 219.752L113.107 221.683L113.884 209.904C114.701 209.757 115.479 209.418 116.165 208.911C116.85 208.404 117.428 207.74 117.858 206.966C118.431 206.021 118.792 204.94 118.911 203.813C119.03 202.686 118.903 201.544 118.542 200.481L113.041 203.649L112.749 201.948C112.447 200.106 111.505 198.465 110.12 197.368L109.634 197.113Z" fill="#435B8C"/>
<path d="M117.769 199.099L119.082 194.519L113.819 193.656L112.082 199.937L113.03 203.709L116.188 201.982L117.769 199.099Z" fill="#FCFDFF"/>
<path d="M118.818 201.723C118.732 200.756 118.363 199.846 117.765 199.129L117.505 199.418H115.846L115.582 200.541L116.188 201.489C116.55 201.821 116.998 202.022 117.469 202.064C117.94 202.105 118.411 201.986 118.818 201.723V201.723Z" fill="url(#paint15_linear_1266_74)"/>
<path opacity="0.61" d="M113.818 209.844C113.818 209.844 109.607 208.117 109.607 205.234L109.949 220.849L113.03 221.597L113.818 209.844Z" fill="url(#paint16_linear_1266_74)"/>
<path d="M113.031 219.523L113.819 233.87L112.794 241.359H109.635L109.111 229.002L107.266 223.814L108.583 241.359L104.9 241.648L103.059 218.371L105.16 217.508L113.031 219.523Z" fill="#333333"/>
<path d="M109.795 241.359V243.378L115.556 243.089C115.556 243.089 115.296 241.074 114.243 241.074C113.674 241.092 113.111 240.946 112.611 240.648L109.795 241.359Z" fill="#435B8C"/>
<path d="M202.875 73.5696H189.426C187.591 73.5685 185.831 72.7696 184.534 71.3487C183.237 69.9278 182.508 68.0011 182.508 65.9921V62.7647C182.508 60.7561 183.237 58.8298 184.534 57.4096C185.832 55.9893 187.592 55.1914 189.426 55.1914H202.875C203.784 55.1908 204.684 55.3862 205.523 55.7663C206.363 56.1463 207.126 56.7037 207.769 57.4066C208.412 58.1094 208.922 58.944 209.27 59.8626C209.618 60.7812 209.797 61.7659 209.798 62.7604V62.7604V65.9879C209.798 66.983 209.619 67.9683 209.271 68.8876C208.923 69.807 208.413 70.6423 207.77 71.346C207.128 72.0496 206.364 72.6078 205.525 72.9886C204.685 73.3694 203.784 73.5654 202.875 73.5654V73.5696Z" fill="white"/>
<path d="M184.059 77.5624C184.059 77.5624 189.559 77.8515 190.876 73.5312H194.955C194.955 73.5312 192.22 79.0039 184.059 77.5624Z" fill="white"/>
<path opacity="0.15" d="M187.165 58.0312H205.641C205.767 58.0313 205.887 58.0859 205.976 58.1832C206.065 58.2805 206.115 58.4124 206.115 58.55V58.9752C206.115 59.1128 206.065 59.2448 205.976 59.3421C205.887 59.4394 205.767 59.494 205.641 59.494H187.165C187.103 59.494 187.041 59.4806 186.984 59.4545C186.926 59.4285 186.874 59.3903 186.83 59.3421C186.786 59.2939 186.751 59.2367 186.727 59.1738C186.704 59.1108 186.691 59.0434 186.691 58.9752V58.55C186.691 58.4819 186.704 58.4144 186.727 58.3515C186.751 58.2886 186.786 58.2314 186.83 58.1832C186.874 58.135 186.926 58.0968 186.984 58.0707C187.041 58.0447 187.103 58.0312 187.165 58.0312V58.0312Z" fill="#020202"/>
<path opacity="0.15" d="M187.165 61.4883H205.641C205.767 61.4883 205.887 61.5429 205.976 61.6402C206.065 61.7375 206.115 61.8695 206.115 62.0071V62.4323C206.115 62.5699 206.065 62.7018 205.976 62.7991C205.887 62.8964 205.767 62.9511 205.641 62.9511H187.165C187.103 62.9511 187.041 62.9376 186.984 62.9116C186.926 62.8855 186.874 62.8473 186.83 62.7991C186.786 62.7509 186.751 62.6937 186.727 62.6308C186.704 62.5679 186.691 62.5004 186.691 62.4323V62.4323V62.0071C186.691 61.9389 186.704 61.8715 186.727 61.8085C186.751 61.7456 186.786 61.6884 186.83 61.6402C186.874 61.5921 186.926 61.5538 186.984 61.5278C187.041 61.5017 187.103 61.4883 187.165 61.4883Z" fill="#020202"/>
<path opacity="0.15" d="M187.165 64.918H205.641C205.767 64.918 205.887 64.9726 205.976 65.0699C206.065 65.1672 206.115 65.2992 206.115 65.4367V65.862C206.115 65.9301 206.103 65.9976 206.079 66.0605C206.055 66.1234 206.02 66.1806 205.976 66.2288C205.932 66.277 205.88 66.3152 205.822 66.3413C205.765 66.3673 205.703 66.3807 205.641 66.3807H187.165C187.103 66.3807 187.041 66.3673 186.984 66.3413C186.926 66.3152 186.874 66.277 186.83 66.2288C186.786 66.1806 186.751 66.1234 186.727 66.0605C186.704 65.9976 186.691 65.9301 186.691 65.862V65.862V65.4367C186.691 65.3686 186.704 65.3012 186.727 65.2382C186.751 65.1753 186.786 65.1181 186.83 65.0699C186.874 65.0217 186.926 64.9835 186.984 64.9575C187.041 64.9314 187.103 64.918 187.165 64.918V64.918Z" fill="#020202"/>
<path opacity="0.15" d="M187.165 68.375H197.238C197.363 68.3761 197.483 68.4313 197.571 68.5284C197.659 68.6256 197.708 68.7569 197.708 68.8938V69.319C197.708 69.4558 197.659 69.5872 197.571 69.6843C197.483 69.7815 197.363 69.8366 197.238 69.8378H187.165C187.103 69.8378 187.041 69.8243 186.984 69.7983C186.926 69.7722 186.874 69.734 186.83 69.6858C186.786 69.6376 186.751 69.5805 186.727 69.5175C186.704 69.4546 186.691 69.3871 186.691 69.319V68.8938C186.691 68.8256 186.704 68.7582 186.727 68.6952C186.751 68.6323 186.786 68.5751 186.83 68.5269C186.874 68.4788 186.926 68.4406 186.984 68.4145C187.041 68.3884 187.103 68.375 187.165 68.375Z" fill="#020202"/>
<path d="M80.2663 188.468H93.7152C95.5244 188.462 97.2597 187.681 98.5488 186.292C99.8379 184.902 100.578 183.015 100.611 181.035V177.667C100.611 175.658 99.8817 173.732 98.5842 172.312C97.2867 170.892 95.5269 170.094 93.6919 170.094H80.2663C78.4303 170.094 76.6696 170.892 75.3713 172.313C74.0731 173.734 73.3438 175.662 73.3438 177.671V181.039C73.3794 183.023 74.1244 184.912 75.4188 186.301C76.7132 187.69 78.4537 188.468 80.2663 188.468V188.468Z" fill="white"/>
<path d="M99.0297 192.558C99.0297 192.558 93.529 192.848 92.212 188.527H88.1797C88.1797 188.527 90.798 193.936 99.0297 192.558Z" fill="white"/>
<path opacity="0.15" d="M95.9262 174.379H77.4505C77.3248 174.379 77.2043 174.324 77.1154 174.227C77.0265 174.13 76.9766 173.998 76.9766 173.86V173.456C76.9766 173.319 77.0265 173.187 77.1154 173.089C77.2043 172.992 77.3248 172.938 77.4505 172.938H95.9262C96.0519 172.938 96.1725 172.992 96.2614 173.089C96.3502 173.187 96.4002 173.319 96.4002 173.456V173.456V173.86C96.4002 173.998 96.3502 174.13 96.2614 174.227C96.1725 174.324 96.0519 174.379 95.9262 174.379V174.379Z" fill="#020202"/>
<path opacity="0.15" d="M95.9262 177.868H77.4505C77.3248 177.868 77.2043 177.814 77.1154 177.716C77.0265 177.619 76.9766 177.487 76.9766 177.35V177.35V176.929C76.9776 176.792 77.028 176.661 77.1167 176.565C77.2055 176.468 77.3255 176.414 77.4505 176.414H95.9262C96.0513 176.414 96.1712 176.468 96.26 176.565C96.3488 176.661 96.3991 176.792 96.4002 176.929V177.354C96.4002 177.491 96.3502 177.623 96.2614 177.721C96.1725 177.818 96.0519 177.873 95.9262 177.873V177.868Z" fill="#020202"/>
<path opacity="0.15" d="M95.9262 181.297H77.4505C77.3255 181.297 77.2055 181.243 77.1167 181.146C77.028 181.05 76.9776 180.919 76.9766 180.782V180.378C76.9766 180.241 77.0265 180.109 77.1154 180.011C77.2043 179.914 77.3248 179.859 77.4505 179.859H95.9262C96.0519 179.859 96.1725 179.914 96.2614 180.011C96.3502 180.109 96.4002 180.241 96.4002 180.378V180.378V180.782C96.3991 180.919 96.3488 181.05 96.26 181.146C96.1712 181.243 96.0513 181.297 95.9262 181.297V181.297Z" fill="#020202"/>
<path opacity="0.15" d="M95.926 184.754H85.849C85.7233 184.754 85.6028 184.7 85.5139 184.602C85.425 184.505 85.3751 184.373 85.3751 184.236V184.236V183.836C85.374 183.767 85.3855 183.699 85.4089 183.635C85.4322 183.571 85.467 183.513 85.5111 183.464C85.5552 183.414 85.6078 183.375 85.6658 183.349C85.7238 183.322 85.7861 183.309 85.849 183.309H95.9298C96.0555 183.309 96.1761 183.363 96.265 183.461C96.3539 183.558 96.4038 183.69 96.4038 183.827V184.227C96.4038 184.295 96.3915 184.363 96.3677 184.426C96.3439 184.489 96.309 184.546 96.265 184.594C96.221 184.642 96.1687 184.68 96.1112 184.706C96.0537 184.732 95.9921 184.746 95.9298 184.746L95.926 184.754Z" fill="#020202"/>
<path d="M116.188 201.984C116.188 201.984 115.306 206.015 114.245 205.441C113.947 205.261 113.686 205.015 113.478 204.719C113.271 204.422 113.122 204.082 113.041 203.719L116.188 201.984Z" fill="url(#paint17_linear_1266_74)"/>
</g>
<defs>
<linearGradient id="paint0_linear_1266_74" x1="148.435" y1="186.019" x2="148.435" y2="251.282" gradientUnits="userSpaceOnUse">
<stop stop-opacity="0.4"/>
<stop offset="1" stop-color="white" stop-opacity="0"/>
</linearGradient>
<linearGradient id="paint1_linear_1266_74" x1="66.2777" y1="-5.24246" x2="283.914" y2="219.053" gradientUnits="userSpaceOnUse">
<stop offset="0.02" stop-color="white" stop-opacity="0"/>
<stop offset="1" stop-color="white"/>
</linearGradient>
<linearGradient id="paint2_linear_1266_74" x1="135.716" y1="280.232" x2="144.135" y2="-54.3593" gradientUnits="userSpaceOnUse">
<stop offset="0.02" stop-color="white" stop-opacity="0"/>
<stop offset="1" stop-color="white"/>
</linearGradient>
<linearGradient id="paint3_linear_1266_74" x1="89.3284" y1="316.012" x2="97.7476" y2="-18.5793" gradientUnits="userSpaceOnUse">
<stop offset="0.02" stop-color="white" stop-opacity="0"/>
<stop offset="1" stop-color="white"/>
</linearGradient>
<linearGradient id="paint4_linear_1266_74" x1="176.988" y1="308.426" x2="185.407" y2="-26.1653" gradientUnits="userSpaceOnUse">
<stop offset="0.02" stop-color="white" stop-opacity="0"/>
<stop offset="1" stop-color="white"/>
</linearGradient>
<linearGradient id="paint5_linear_1266_74" x1="176.84" y1="345.205" x2="185.259" y2="10.6139" gradientUnits="userSpaceOnUse">
<stop offset="0.02" stop-color="white" stop-opacity="0"/>
<stop offset="1" stop-color="white"/>
</linearGradient>
<linearGradient id="paint6_linear_1266_74" x1="179.12" y1="261.459" x2="187.539" y2="-73.1282" gradientUnits="userSpaceOnUse">
<stop offset="0.02" stop-color="white" stop-opacity="0"/>
<stop offset="1" stop-color="white"/>
</linearGradient>
<linearGradient id="paint7_linear_1266_74" x1="208.121" y1="256.8" x2="115.426" y2="29.5307" gradientUnits="userSpaceOnUse">
<stop offset="0.58"/>
<stop offset="0.78" stop-opacity="0.16"/>
</linearGradient>
<linearGradient id="paint8_linear_1266_74" x1="143.863" y1="283.01" x2="51.1687" y2="55.7372" gradientUnits="userSpaceOnUse">
<stop offset="0.58"/>
<stop offset="0.78" stop-opacity="0.16"/>
</linearGradient>
<linearGradient id="paint9_linear_1266_74" x1="238.336" y1="244.477" x2="145.641" y2="17.2034" gradientUnits="userSpaceOnUse">
<stop offset="0.58"/>
<stop offset="0.78" stop-opacity="0.16"/>
</linearGradient>
<linearGradient id="paint10_linear_1266_74" x1="174.487" y1="77.3001" x2="181.366" y2="77.3001" gradientUnits="userSpaceOnUse">
<stop stop-color="#ECC4D7"/>
<stop offset="0.42" stop-color="#EFD4D1"/>
<stop offset="1" stop-color="#F2EAC9"/>
</linearGradient>
<linearGradient id="paint11_linear_1266_74" x1="168.32" y1="86.527" x2="171.56" y2="86.527" gradientUnits="userSpaceOnUse">
<stop stop-color="#ECC4D7"/>
<stop offset="0.42" stop-color="#EFD4D1"/>
<stop offset="1" stop-color="#F2EAC9"/>
</linearGradient>
<linearGradient id="paint12_linear_1266_74" x1="169.992" y1="89.1584" x2="176.623" y2="91.4714" gradientUnits="userSpaceOnUse">
<stop stop-opacity="0"/>
<stop offset="0.91" stop-opacity="0.8"/>
<stop offset="1"/>
</linearGradient>
<linearGradient id="paint13_linear_1266_74" x1="163.488" y1="99.0135" x2="183.528" y2="97.9944" gradientUnits="userSpaceOnUse">
<stop offset="0.36" stop-color="#00272E"/>
<stop offset="1" stop-color="#69B9EB" stop-opacity="0"/>
</linearGradient>
<linearGradient id="paint14_linear_1266_74" x1="102.607" y1="191.969" x2="110.478" y2="191.969" gradientUnits="userSpaceOnUse">
<stop stop-color="#ECC4D7"/>
<stop offset="0.42" stop-color="#EFD4D1"/>
<stop offset="1" stop-color="#F2EAC9"/>
</linearGradient>
<linearGradient id="paint15_linear_1266_74" x1="115.582" y1="200.6" x2="118.818" y2="200.6" gradientUnits="userSpaceOnUse">
<stop stop-color="#ECC4D7"/>
<stop offset="0.42" stop-color="#EFD4D1"/>
<stop offset="1" stop-color="#F2EAC9"/>
</linearGradient>
<linearGradient id="paint16_linear_1266_74" x1="119.816" y1="214.577" x2="106.193" y2="213.022" gradientUnits="userSpaceOnUse">
<stop offset="0.36" stop-color="#00272E"/>
<stop offset="1" stop-color="#69B9EB" stop-opacity="0"/>
</linearGradient>
<linearGradient id="paint17_linear_1266_74" x1="114.902" y1="202.133" x2="112.789" y2="207.263" gradientUnits="userSpaceOnUse">
<stop stop-opacity="0"/>
<stop offset="0.91" stop-opacity="0.8"/>
<stop offset="1"/>
</linearGradient>
<clipPath id="clip0_1266_74">
<rect width="320" height="264" fill="white"/>
</clipPath>
</defs>
</svg>
