<svg width="201" height="40" viewBox="0 0 201 40" fill="none" xmlns="http://www.w3.org/2000/svg">
<g clip-path="url(#clip0_980_124)">
<path d="M21 28.6777C29.8366 28.6777 37 24.9443 37 20.3389C37 15.7334 29.8366 12 21 12C12.1634 12 5 15.7334 5 20.3389C5 24.9443 12.1634 28.6777 21 28.6777Z" fill="url(#paint0_radial_980_124)"/>
<path d="M21 28.0597C29.4914 28.0597 36.375 24.6037 36.375 20.3404C36.375 16.0772 29.4914 12.6211 21 12.6211C12.5086 12.6211 5.625 16.0772 5.625 20.3404C5.625 24.6037 12.5086 28.0597 21 28.0597Z" fill="black"/>
<path d="M24.1131 22.8407L24.8756 18.9501C25.0506 18.0703 24.9006 17.4136 24.4506 17.0047C24.0131 16.6082 23.2631 16.41 22.1631 16.41H20.8381L21.2131 14.4771C21.2256 14.4027 21.2131 14.3284 21.1631 14.2664C21.1131 14.2045 21.0506 14.1797 20.9756 14.1797H19.1506C19.0256 14.1797 18.9256 14.2664 18.9006 14.3779L18.0881 18.504C18.0131 18.0332 17.8381 17.6367 17.5381 17.3145C17.0006 16.7074 16.1631 16.3976 15.0256 16.3976H11.5131C11.3881 16.3976 11.2881 16.4843 11.2631 16.5958L9.6256 24.9719C9.6131 25.0462 9.6256 25.1206 9.6756 25.1825C9.7256 25.2445 9.7881 25.2693 9.8631 25.2693H11.7006C11.8256 25.2693 11.9256 25.1825 11.9506 25.071L12.3506 23.0513H13.7131C14.4256 23.0513 15.0381 22.977 15.5006 22.8283C15.9881 22.6672 16.4256 22.407 16.8131 22.0477C17.1256 21.7627 17.3881 21.4406 17.5881 21.0936L17.2631 22.7664C17.2506 22.8407 17.2631 22.915 17.3131 22.977C17.3631 23.0389 17.4256 23.0637 17.5006 23.0637H19.3256C19.4506 23.0637 19.5506 22.977 19.5756 22.8655L20.4756 18.281H21.7256C22.2631 18.281 22.4131 18.3801 22.4631 18.4297C22.5006 18.4668 22.5756 18.6155 22.4881 19.074L21.7631 22.7787C21.7506 22.8531 21.7631 22.9274 21.8131 22.9894C21.8631 23.0513 21.9256 23.0761 22.0006 23.0761H23.8756C23.9881 23.0389 24.0881 22.9522 24.1131 22.8407ZM15.6631 19.6191C15.5506 20.2015 15.3381 20.6228 15.0256 20.8582C14.7131 21.0936 14.2006 21.2175 13.5256 21.2175H12.7131L13.3006 18.219H14.3506C15.1256 18.219 15.4381 18.3801 15.5631 18.5164C15.7256 18.7146 15.7631 19.0987 15.6631 19.6191Z" fill="#F0F0F0"/>
<path d="M31.9147 17.3153C31.3772 16.7082 30.5397 16.3984 29.4022 16.3984H25.8647C25.7397 16.3984 25.6397 16.4852 25.6147 16.5967L23.9772 24.9603C23.9647 25.0347 23.9772 25.109 24.0272 25.171C24.0772 25.2329 24.1397 25.2577 24.2147 25.2577H26.0522C26.1772 25.2577 26.2772 25.171 26.3022 25.0594L26.7022 23.0398H28.0647C28.7772 23.0398 29.3897 22.9654 29.8522 22.8168C30.3397 22.6557 30.7772 22.3955 31.1647 22.0361C31.4897 21.7388 31.7647 21.4042 31.9647 21.0449C32.1647 20.6856 32.3147 20.2891 32.4022 19.8554C32.6147 18.7774 32.4522 17.9349 31.9147 17.3153ZM30.0022 19.62C29.8897 20.2023 29.6772 20.6236 29.3647 20.859C29.0522 21.0945 28.5397 21.2184 27.8647 21.2184H27.0522L27.6397 18.2199H28.6897C29.4647 18.2199 29.7772 18.3809 29.9022 18.5172C30.0772 18.7155 30.1147 19.0996 30.0022 19.62Z" fill="#F0F0F0"/>
<path d="M14.35 17.9742C15.05 17.9742 15.5125 18.0981 15.75 18.3583C15.9875 18.6185 16.0375 19.0522 15.9125 19.6717C15.7875 20.316 15.5375 20.7869 15.175 21.0595C14.8125 21.3321 14.2625 21.4684 13.525 21.4684H12.4125L13.1 17.9742H14.35ZM9.875 25.0121H11.7125L12.15 22.7942H13.725C14.425 22.7942 14.9875 22.7198 15.4375 22.5711C15.8875 22.4224 16.2875 22.187 16.6625 21.8401C16.975 21.5551 17.225 21.2453 17.4125 20.9108C17.6 20.5762 17.7375 20.2045 17.8125 19.7956C18.0125 18.8044 17.8625 18.0362 17.375 17.4786C16.8875 16.921 16.1125 16.6484 15.05 16.6484H11.5125L9.875 25.0121Z" fill="white"/>
<path d="M19.1609 14.4297H20.9859L20.5484 16.6476H22.1734C23.1984 16.6476 23.8984 16.8211 24.2859 17.1804C24.6734 17.5397 24.7859 18.1097 24.6359 18.9027L23.8734 22.7933H22.0234L22.7484 19.0885C22.8359 18.6673 22.7984 18.3823 22.6609 18.2336C22.5234 18.0849 22.2109 17.9982 21.7484 17.9982H20.2859L19.3484 22.7933H17.5234L19.1609 14.4297Z" fill="white"/>
<path d="M28.6859 17.9742C29.3859 17.9742 29.8484 18.0981 30.0859 18.3583C30.3234 18.6185 30.3734 19.0522 30.2484 19.6717C30.1234 20.316 29.8734 20.7869 29.5109 21.0595C29.1484 21.3321 28.5984 21.4684 27.8609 21.4684H26.7484L27.4359 17.9742H28.6859ZM24.2109 25.0121H26.0484L26.4859 22.7942H28.0609C28.7609 22.7942 29.3234 22.7198 29.7734 22.5711C30.2234 22.4224 30.6234 22.187 30.9984 21.8401C31.3109 21.5551 31.5609 21.2453 31.7484 20.9108C31.9359 20.5762 32.0734 20.2045 32.1484 19.7956C32.3484 18.8044 32.1984 18.0362 31.7109 17.4786C31.2234 16.921 30.4484 16.6484 29.3859 16.6484H25.8484L24.2109 25.0121Z" fill="white"/>
</g>
<path d="M56.5001 34.9238C58.9841 34.9238 61.0001 32.6895 61.0001 29.9365V24.9492H56.5001C54.016 24.9492 52 27.1835 52 29.9365C52 32.6895 54.016 34.9238 56.5001 34.9238Z" fill="black"/>
<path d="M52 19.9599C52 17.207 54.016 14.9727 56.5001 14.9727H61.0001V24.9472H56.5001C54.016 24.9472 52 22.7129 52 19.9599Z" fill="black"/>
<path d="M52 9.98729C52 7.2343 54.016 5 56.5001 5H61.0001V14.9746H56.5001C54.016 14.9746 52 12.7403 52 9.98729Z" fill="black"/>
<path d="M61 5H65.5001C67.9841 5 70.0001 7.2343 70.0001 9.98729C70.0001 12.7403 67.9841 14.9746 65.5001 14.9746H61V5Z" fill="black"/>
<path d="M70.0001 19.9599C70.0001 22.7129 67.9841 24.9472 65.5001 24.9472C63.016 24.9472 61 22.7129 61 19.9599C61 17.207 63.016 14.9727 65.5001 14.9727C67.9841 14.9727 70.0001 17.207 70.0001 19.9599Z" fill="black"/>
<path d="M114.457 28.6618C112.717 28.6177 111.369 28.7946 110.238 29.2805C109.912 29.413 109.39 29.4131 109.346 29.8328C109.52 30.0097 109.542 30.2969 109.694 30.5398C109.955 30.9815 110.412 31.5782 110.825 31.8876C111.282 32.241 111.738 32.5944 112.217 32.9038C113.065 33.434 114.022 33.7433 114.848 34.2735C115.327 34.5826 115.805 34.9805 116.284 35.3119C116.523 35.4885 116.675 35.7758 116.98 35.8863V35.82C116.827 35.6211 116.784 35.334 116.632 35.113C116.414 34.8921 116.197 34.6932 115.979 34.4723C115.348 33.6108 114.566 32.8596 113.717 32.241C113.022 31.7549 111.499 31.0921 111.216 30.2747C111.216 30.2747 111.195 30.2526 111.173 30.2306C111.651 30.1864 112.217 30.0097 112.674 29.877C113.413 29.6781 114.087 29.7224 114.848 29.5236C115.196 29.4352 115.544 29.3247 115.892 29.2143V29.0155C115.501 28.6177 115.218 28.0876 114.805 27.712C113.696 26.7397 112.478 25.7899 111.216 24.9946C110.542 24.5527 109.672 24.2654 108.955 23.89C108.694 23.7572 108.259 23.6911 108.107 23.4701C107.715 22.9841 107.498 22.3435 107.215 21.769C106.584 20.5537 105.975 19.2063 105.432 17.9249C105.04 17.0632 104.801 16.2016 104.322 15.4063C102.082 11.6505 99.6467 9.375 95.9061 7.14355C95.1015 6.67966 94.1446 6.48077 93.1225 6.2378C92.5789 6.21563 92.0351 6.17156 91.4914 6.14938C91.1435 5.9947 90.7955 5.57502 90.4909 5.37613C89.2516 4.58071 86.0545 2.85764 85.1411 5.13317C84.5539 6.5692 86.011 7.98304 86.5112 8.71221C86.881 9.22032 87.3594 9.79467 87.6204 10.3692C87.7726 10.7445 87.816 11.1424 87.9683 11.5401C88.3163 12.5119 88.6424 13.5947 89.0992 14.5005C89.3385 14.9644 89.5993 15.4505 89.9039 15.8702C90.0778 16.1131 90.3822 16.2237 90.4476 16.6214C90.1432 17.0632 90.1213 17.726 89.9472 18.2783C89.1644 20.7748 89.4689 23.8678 90.578 25.7014C90.9259 26.2536 91.7524 27.469 92.8615 27.005C93.8401 26.6073 93.6226 25.348 93.9053 24.2434C93.9707 23.9781 93.9272 23.8015 94.0576 23.6248C94.0577 23.6468 94.0576 23.669 94.0576 23.669C94.3621 24.2876 94.6665 24.8841 94.9492 25.5027C95.6234 26.5851 96.7977 27.712 97.7764 28.4632C98.2985 28.8607 98.7116 29.5456 99.364 29.7887V29.7223H99.3205C99.1899 29.5235 98.9943 29.4352 98.8204 29.2805C98.4289 28.8829 97.9938 28.3968 97.6895 27.9549C96.7762 26.7176 95.9713 25.348 95.2537 23.934C94.9058 23.2492 94.6013 22.498 94.3186 21.8132C94.188 21.5479 94.188 21.1504 93.9705 21.0179C93.6443 21.5038 93.166 21.9236 92.9267 22.5202C92.5137 23.4701 92.47 24.641 92.3178 25.8561C92.2309 25.8783 92.2743 25.8561 92.2307 25.9003C91.5349 25.7235 91.2956 24.9946 91.0346 24.3759C90.3822 22.8074 90.2735 20.2887 90.839 18.4772C90.9912 18.0132 91.6437 16.5551 91.3827 16.1133C91.2522 15.6935 90.8171 15.4505 90.578 15.1191C90.2953 14.6993 89.9908 14.1692 89.7951 13.7051C89.2731 12.468 89.0121 11.0982 88.4468 9.86093C88.1858 9.28643 87.7291 8.69004 87.3594 8.1599C86.9463 7.56337 86.4895 7.14355 86.1633 6.43655C86.0547 6.19359 85.9023 5.79595 86.0762 5.53081C86.1197 5.35409 86.2066 5.28784 86.3807 5.24363C86.6634 5.00052 87.4681 5.30988 87.7508 5.44238C88.5555 5.77363 89.2296 6.08312 89.9039 6.54702C90.2082 6.76794 90.5344 7.18776 90.9259 7.29823H91.3827C92.0786 7.45276 92.8615 7.34244 93.5139 7.54119C94.6666 7.91665 95.7103 8.46911 96.6456 9.06565C99.4946 10.8993 101.843 13.5064 103.431 16.6214C103.692 17.1294 103.8 17.5935 104.04 18.1237C104.497 19.2063 105.062 20.3109 105.519 21.3713C105.975 22.4096 106.41 23.4701 107.063 24.3318C107.389 24.7956 108.694 25.0387 109.281 25.2818C109.716 25.4805 110.39 25.6574 110.781 25.9003C111.521 26.3641 112.26 26.8945 112.956 27.4026C113.304 27.6676 114.392 28.2201 114.457 28.6618L114.457 28.6618Z" fill="black"/>
<path d="M92.2744 9.46484C91.9047 9.46484 91.6438 9.5092 91.3828 9.57545C91.3828 9.57533 91.3828 9.59763 91.3828 9.61966H91.4263C91.6004 9.97309 91.9047 10.2162 92.1221 10.5254C92.2962 10.8788 92.4484 11.2324 92.6224 11.586C92.6441 11.5638 92.6658 11.5418 92.6658 11.5418C92.9705 11.3207 93.1226 10.9673 93.1226 10.4371C92.992 10.2824 92.9704 10.1278 92.8616 9.97309C92.7312 9.75202 92.4484 9.6417 92.2744 9.46484Z" fill="black"/>
<path d="M153.484 17.1583C152.921 16.6387 151.631 16.4438 150.622 16.7037C150.505 15.4046 149.966 14.2679 149.027 13.2612L148.488 12.7415L148.112 13.4885C147.643 14.4628 147.409 15.8268 147.479 17.1258C147.503 17.5805 147.62 18.3924 147.972 19.1069C147.643 19.3667 146.963 19.6915 146.072 19.6915H129.113L129.066 19.9513C128.902 21.2503 128.902 25.3099 130.825 28.4276C132.279 30.7984 134.437 32 137.276 32C143.421 32 147.972 28.0704 150.106 20.9581C150.951 20.9905 152.757 20.9581 153.672 18.5223C153.695 18.4574 153.742 18.3275 153.906 17.8403L154 17.5805L153.484 17.1583ZM142.671 8H140.09V11.2476H142.671V8ZM142.671 11.8972H140.09V15.1448H142.671V11.8972ZM139.621 11.8972H137.041V15.1448H139.621V11.8972ZM136.572 11.8972H133.992V15.1448H136.572V11.8972ZM133.523 15.7943H130.942V19.0419H133.523V15.7943ZM136.572 15.7943H133.992V19.0419H136.572V15.7943ZM139.621 15.7943H137.041V19.0419H139.621V15.7943ZM142.671 15.7943H140.09V19.0419H142.671V15.7943ZM145.72 15.7943H143.14V19.0419H145.72V15.7943Z" fill="black"/>
<path d="M181 8C174.373 8 169 13.5085 169 20.3038C169 25.74 172.438 30.3519 177.206 31.9789C177.806 32.0927 178.026 31.7119 178.026 31.387C178.026 31.0936 178.015 30.1244 178.01 29.0963C174.672 29.8405 173.967 27.6446 173.967 27.6446C173.421 26.2224 172.635 25.8443 172.635 25.8443C171.546 25.0806 172.717 25.0963 172.717 25.0963C173.922 25.1831 174.556 26.3642 174.556 26.3642C175.627 28.2452 177.364 27.7014 178.048 27.387C178.156 26.5918 178.467 26.049 178.81 25.7418C176.145 25.4307 173.343 24.3757 173.343 19.6612C173.343 18.3179 173.812 17.2203 174.579 16.3587C174.455 16.0488 174.044 14.7974 174.696 13.1026C174.696 13.1026 175.703 12.7719 177.996 14.3638C178.954 14.0912 179.98 13.9545 181 13.9498C182.02 13.9545 183.047 14.0912 184.006 14.3638C186.297 12.7719 187.303 13.1026 187.303 13.1026C187.956 14.7974 187.545 16.0488 187.421 16.3587C188.19 17.2203 188.656 18.3179 188.656 19.6612C188.656 24.3869 185.848 25.4274 183.176 25.732C183.607 26.1138 183.99 26.8626 183.99 28.0105C183.99 29.6568 183.976 30.9817 183.976 31.387C183.976 31.7144 184.192 32.098 184.801 31.9772C189.566 30.3485 193 25.7381 193 20.3038C193 13.5085 187.627 8 181 8ZM173.494 25.527C173.468 25.5882 173.374 25.6065 173.289 25.5645C173.202 25.5244 173.153 25.4411 173.181 25.3797C173.207 25.3168 173.301 25.2992 173.388 25.3414C173.475 25.3816 173.525 25.4657 173.494 25.527ZM174.085 26.0671C174.027 26.1215 173.916 26.0962 173.84 26.0102C173.761 25.9244 173.746 25.8097 173.805 25.7545C173.864 25.7001 173.972 25.7256 174.051 25.8114C174.129 25.8981 174.145 26.012 174.085 26.0671ZM174.49 26.758C174.416 26.8104 174.296 26.7613 174.222 26.6518C174.148 26.5424 174.148 26.4112 174.223 26.3587C174.298 26.3061 174.416 26.3534 174.491 26.462C174.565 26.5732 174.565 26.7044 174.49 26.758ZM175.175 27.5582C175.109 27.6326 174.969 27.6126 174.866 27.5111C174.761 27.4119 174.732 27.2711 174.798 27.1968C174.865 27.1222 175.005 27.1432 175.109 27.2438C175.213 27.3428 175.245 27.4846 175.175 27.5582ZM176.06 27.8283C176.031 27.9247 175.896 27.9685 175.76 27.9276C175.624 27.8854 175.535 27.7725 175.563 27.6751C175.591 27.5781 175.726 27.5325 175.863 27.5763C175.999 27.6183 176.088 27.7303 176.06 27.8283ZM177.067 27.9429C177.07 28.0444 176.955 28.1285 176.812 28.1304C176.669 28.1336 176.553 28.0515 176.551 27.9517C176.551 27.8492 176.664 27.7659 176.807 27.7634C176.95 27.7606 177.067 27.8421 177.067 27.9429ZM178.056 27.904C178.074 28.0031 177.974 28.1047 177.833 28.1318C177.693 28.1579 177.564 28.0968 177.547 27.9986C177.529 27.8971 177.63 27.7954 177.77 27.7692C177.911 27.7439 178.038 27.8034 178.056 27.904Z" fill="#161614"/>
<defs>
<radialGradient id="paint0_radial_980_124" cx="0" cy="0" r="1" gradientUnits="userSpaceOnUse" gradientTransform="translate(14.6065 14.9326) scale(21.0119 20.828)">
<stop stop-color="white"/>
<stop offset="0.5" stop-color="#4C6B97"/>
<stop offset="1" stop-color="#231F20"/>
</radialGradient>
<clipPath id="clip0_980_124">
<rect width="32" height="16.7273" fill="white" transform="translate(5 12)"/>
</clipPath>
</defs>
</svg>
