<svg width="241" height="40" viewBox="0 0 241 40" fill="none" xmlns="http://www.w3.org/2000/svg">
<g clip-path="url(#clip0_980_82)">
<path d="M32.5 9.73828L30.3135 34.5282L20.4853 37.2858L10.6841 34.532L8.5 9.73828H32.5Z" fill="#161614"/>
<path d="M20.5 35.1781L28.4417 32.9497L30.3102 11.7656H20.5V35.1781Z" fill="#161614"/>
<path d="M16.2484 17.8456H20.4988V14.8047H12.9648L13.0368 15.6205L13.7752 24.0003H20.4988V20.9595H16.523L16.2484 17.8456Z" fill="#EBEBEB"/>
<path d="M16.9263 25.5234H13.9102L14.3311 30.298L20.4857 32.0272L20.4995 32.0233V28.8596L20.4863 28.8631L17.1402 27.9487L16.9263 25.5234Z" fill="#EBEBEB"/>
<path d="M10.7344 3H12.2612V4.52677H13.658V3H15.1849V7.62344H13.658V6.07524H12.2613V7.62344H10.7344V3H10.7344Z" fill="black"/>
<path d="M17.1918 4.5332H15.8477V3H20.0636V4.5332H18.7189V7.62344H17.1919V4.5332H17.1918Z" fill="black"/>
<path d="M20.7344 3H22.3265L23.3058 4.62454L24.2842 3H25.8769V7.62344H24.3563V5.33181L23.3058 6.9757H23.2796L22.2284 5.33181V7.62344H20.7344V3Z" fill="black"/>
<path d="M26.6367 3H28.1641V6.09519H30.3113V7.62344H26.6367V3Z" fill="black"/>
<path d="M20.4883 24.0018H24.1881L23.8393 27.9455L20.4883 28.8609V32.0245L26.6478 30.2968L26.693 29.7831L27.399 21.7775L27.4723 20.9609H20.4883V24.0018Z" fill="white"/>
<path d="M20.4883 17.8381V17.8456H27.7457L27.806 17.1621L27.9429 15.6205L28.0147 14.8047H20.4883V17.8381Z" fill="white"/>
</g>
<g clip-path="url(#clip1_980_82)">
<path d="M60.4866 36.8349L50.7195 34.1235L48.543 9.71094H72.4595L70.2806 34.1197L60.4866 36.8349Z" fill="#161614"/>
<path d="M68.4141 32.5654L70.276 11.707H60.5V34.7595L68.4141 32.5654Z" fill="#161614"/>
<path d="M53.5312 20.7617L53.7996 23.7558H60.4998V20.7617H53.5312Z" fill="#EBEBEB"/>
<path d="M52.9922 14.7031L53.2644 17.6973H60.5V14.7031H52.9922Z" fill="#EBEBEB"/>
<path d="M60.5 28.5387L60.4869 28.5422L57.1524 27.6418L56.9392 25.2539H53.9336L54.3531 29.9551L60.4863 31.6577L60.5 31.6539V28.5387Z" fill="#EBEBEB"/>
<path d="M54.1719 3.07812H57.7982V4.59461H55.6884V6.11109H57.7982V7.62758H54.1719V3.07812Z" fill="black"/>
<path d="M58.5234 3.07812H62.1498V4.39681H60.0399V4.66054H62.1498V7.69351H58.5234V6.30889H60.6333V6.04516H58.5234V3.07812Z" fill="black"/>
<path d="M62.875 3.07812H66.5014V4.39681H64.3915V4.66054H66.5014V7.69351H62.875V6.30889H64.9849V6.04516H62.875V3.07812Z" fill="black"/>
<path d="M67.4519 20.7633L67.9925 14.7031H60.4922V17.6973H64.7112L64.4387 20.7633H60.4922V23.7573H64.1791L63.8315 27.6404L60.4922 28.5418V31.6568L66.6303 29.9556L66.6753 29.4497L67.3789 21.5673L67.4519 20.7633Z" fill="white"/>
</g>
<g opacity="0.4">
<path opacity="0.32" d="M109.666 21.7956C108.829 21.8014 108.101 22.0703 107.492 22.4677C107.268 21.8774 107.044 21.3513 107.005 20.9656C106.961 20.5155 106.909 20.2408 106.961 19.7031C107.014 19.1653 107.25 18.3997 107.246 18.3412C107.242 18.2828 107.193 18.0081 106.711 18.0022C106.229 17.9964 105.813 18.125 105.764 18.2945C105.716 18.464 105.624 18.8497 105.563 19.2472C105.479 19.8317 104.598 21.9183 104.094 23.0113C103.932 22.5846 103.792 22.2106 103.761 21.9125C103.717 21.4624 103.665 21.1877 103.717 20.65C103.77 20.1122 104.007 19.3465 104.002 19.2881C103.998 19.2296 103.95 18.9549 103.467 18.9491C102.985 18.9432 102.569 19.0718 102.52 19.2413C102.472 19.4108 102.42 19.8083 102.319 20.1941C102.218 20.5798 101.048 24.0634 100.741 24.9635C100.583 25.4253 100.447 25.7935 100.351 26.0448C100.351 26.0448 100.346 26.0624 100.333 26.0916C100.25 26.3078 100.201 26.4247 100.201 26.4247C100.201 26.4247 100.201 26.4247 100.201 26.4306C100.136 26.5884 100.066 26.7345 100.031 26.7345C100.004 26.7345 99.956 26.3137 100.039 25.7409C100.215 24.531 100.631 22.6489 100.627 22.5846C100.627 22.5496 100.706 22.2222 100.355 22.0527C100.013 21.8832 99.8902 22.1638 99.8596 22.1638C99.8289 22.1638 99.807 22.2632 99.807 22.2632C99.807 22.2632 100.188 20.1473 99.0793 20.1473C98.3866 20.1473 97.431 21.1585 96.9576 22.0703C96.6595 22.2865 96.0238 22.7483 95.3444 23.2451C95.0857 23.438 94.8183 23.6309 94.5684 23.8121C94.5509 23.7887 94.5334 23.7595 94.5158 23.7361C93.1744 21.8248 90.6933 20.4746 90.7985 17.9087C90.8379 16.9735 91.079 14.5186 95.5635 11.5377C99.2546 9.11208 102.192 9.78424 102.7 11.2747C103.428 13.4023 101.126 17.3534 97.3126 17.9262C95.8572 18.1425 95.0945 17.3943 94.9016 17.1138C94.7 16.8215 94.6693 16.804 94.5947 16.8624C94.472 16.9501 94.5509 17.2131 94.5947 17.3651C94.7087 17.7626 95.1778 18.464 95.9712 18.8088C96.6726 19.1127 98.3779 19.2822 100.443 18.2185C102.753 17.0261 104.559 13.712 104.028 10.9357C103.498 8.11844 99.9911 7.1891 96.6726 8.76138C94.7 9.69657 92.5607 11.1695 91.022 13.0866C89.194 15.3661 88.9047 17.3476 89.0231 18.1776C89.4483 21.1234 92.495 23.0405 93.7136 24.4608C93.6522 24.5076 93.5953 24.5485 93.547 24.5836C92.9377 24.9869 90.6143 26.6059 90.0357 28.3185C89.3781 30.259 90.1409 31.6501 90.645 31.8371C92.21 32.4158 93.8188 31.3754 94.6824 29.657C95.546 27.9386 95.4408 25.7058 95.0419 24.683C95.0375 24.6713 95.0331 24.6596 95.0243 24.6479C95.1822 24.5251 95.3444 24.3966 95.5022 24.2738C95.8134 24.0283 96.1203 23.8004 96.3833 23.6133C96.2342 24.1569 96.1247 24.8057 96.072 25.7409C96.0063 26.8397 96.3438 28.2659 96.7866 28.827C96.9839 29.0725 97.2162 29.0783 97.3652 29.0783C97.8825 29.0783 98.1148 28.5055 98.3735 27.8275C98.6891 26.9975 98.9741 26.0331 98.9741 26.0331C98.9741 26.0331 98.619 28.64 99.5834 28.64C99.9341 28.64 100.289 28.0321 100.447 27.7223V27.7282C100.447 27.7282 100.456 27.7106 100.473 27.6697C100.508 27.5937 100.53 27.547 100.53 27.547V27.5353C100.671 27.208 100.986 26.4657 101.455 25.2324C102.06 23.6426 102.643 21.6553 102.643 21.6553C102.643 21.6553 102.696 22.1404 102.876 22.947C102.981 23.4205 103.2 23.9407 103.375 24.4433C103.235 24.7063 103.147 24.8525 103.147 24.8525C103.147 24.8525 103.147 24.8525 103.152 24.8583C103.038 25.057 102.915 25.2733 102.779 25.4837C102.301 26.2436 101.731 27.1144 101.652 27.3658C101.56 27.6639 101.582 27.8801 101.758 28.0555C101.885 28.1841 102.113 28.2016 102.345 28.1841C102.775 28.1432 103.077 28.0029 103.226 27.9152C103.459 27.8041 103.73 27.6346 103.985 27.3833C104.454 26.9216 104.739 26.2611 104.712 25.3902C104.699 24.9109 104.581 24.4316 104.436 23.9816C104.48 23.8997 104.519 23.8179 104.563 23.7361C105.304 22.2924 105.878 20.7084 105.878 20.7084C105.878 20.7084 105.931 21.1935 106.111 22.0001C106.198 22.4093 106.378 22.8535 106.536 23.286C105.839 24.04 105.409 24.9168 105.256 25.4896C104.98 26.5533 105.195 27.0326 105.602 27.1437C105.786 27.1963 106.049 27.0794 106.242 26.9683C106.488 26.8631 106.777 26.6819 107.053 26.4131C107.522 25.9513 107.974 25.3084 107.947 24.4375C107.934 24.04 107.855 23.6484 107.746 23.2685C108.338 22.9412 109.1 22.76 110.074 22.9119C112.16 23.2393 112.572 24.9752 112.493 25.7058C112.414 26.4364 111.976 26.8339 111.831 26.9566C111.687 27.0794 111.639 27.1203 111.652 27.208C111.669 27.3365 111.739 27.3307 111.862 27.3073C112.033 27.2664 112.958 26.717 112.997 25.3727C113.063 23.6542 111.836 21.778 109.666 21.7956ZM93.569 29.0316C92.8763 30.0369 91.9119 30.4168 91.4955 30.0954C91.0483 29.7505 91.2237 28.2659 92.0741 27.2021C92.5914 26.5533 93.2577 25.9513 93.7005 25.5831C93.8013 25.5012 93.9503 25.3843 94.1301 25.2382C94.1608 25.2148 94.1783 25.2032 94.1783 25.2032C94.2134 25.1739 94.2484 25.1447 94.2835 25.1155C94.5947 26.6352 94.2967 27.9736 93.569 29.0316ZM98.6102 24.4608C98.3691 25.2441 97.865 27.2489 97.5581 27.1378C97.2951 27.0443 97.1329 25.5246 97.5055 24.0225C97.694 23.2685 98.0929 22.3684 98.3253 22.0177C98.7023 21.4566 99.1187 21.2695 99.2195 21.4975C99.3467 21.7956 98.7593 23.9699 98.6102 24.4608ZM102.77 27.1144C102.67 27.1846 102.573 27.2313 102.529 27.1963C102.499 27.1729 102.573 27.0794 102.573 27.0794C102.573 27.0794 103.095 26.3312 103.301 25.9922C103.419 25.7935 103.559 25.5597 103.708 25.2967V25.3727C103.708 26.2669 103.06 26.869 102.77 27.1144ZM105.979 26.1383C105.905 26.0682 105.918 25.8344 106.168 25.1038C106.264 24.8174 106.492 24.3381 106.882 23.8764C106.926 24.0634 106.957 24.2446 106.952 24.4141C106.948 25.5422 106.343 25.963 105.979 26.1383Z" fill="black"/>
</g>
<path d="M126.5 8H152.5V34H126.5V8Z" fill="black"/>
<path d="M133.336 29.7285L135.326 28.5244C135.71 29.2049 136.059 29.7808 136.896 29.7808C137.699 29.7808 138.205 29.4667 138.205 28.2451V19.9375H140.649V28.2797C140.649 30.8103 139.165 31.9622 137.001 31.9622C135.046 31.9622 133.912 30.9499 133.336 29.7283" fill="white"/>
<path d="M141.977 29.4657L143.966 28.3139C144.49 29.1691 145.17 29.7974 146.375 29.7974C147.387 29.7974 148.033 29.2912 148.033 28.5931C148.033 27.7554 147.369 27.4586 146.252 26.9701L145.642 26.7081C143.879 25.9578 142.709 25.0154 142.709 23.0257C142.709 21.1932 144.106 19.7969 146.287 19.7969C147.841 19.7969 148.958 20.338 149.76 21.7517L147.858 22.9733C147.439 22.2229 146.985 21.9262 146.287 21.9262C145.572 21.9262 145.118 22.38 145.118 22.9733C145.118 23.7063 145.572 24.0031 146.619 24.4569L147.23 24.7187C149.307 25.6088 150.476 26.5163 150.476 28.5582C150.476 30.7574 148.748 31.9615 146.427 31.9615C144.158 31.9615 142.692 30.8795 141.977 29.4657" fill="white"/>
<path fill-rule="evenodd" clip-rule="evenodd" d="M191.945 25.8135L191.837 26.0944C190.006 29.6926 186.762 31.9004 182.135 31.9978C179.972 32.0427 177.911 31.4826 176.565 30.8733C173.659 29.5558 171.216 27.1122 169.881 24.5015C167.966 20.7589 167.621 15.5527 171.602 11.6641C171.663 11.6641 171.119 12.5072 171.181 12.5072L171.071 12.8671C168.202 21.932 177.04 29.7002 185.632 28.8118C187.696 28.5983 190.329 27.457 191.945 25.8135Z" fill="black"/>
<path fill-rule="evenodd" clip-rule="evenodd" d="M186.745 22.0648C188.906 22.0799 191.164 21.0603 192.501 19.6287C191.331 22.6254 187.945 24.5518 183.403 23.939C179.6 23.4255 175.978 19.5631 175.604 15.693C175.331 12.8764 176.304 11.1953 177.907 9.15625C177.35 10.2227 177.142 11.0453 177.09 11.5699C176.481 17.6627 181.912 22.0331 186.745 22.0648Z" fill="black"/>
<path fill-rule="evenodd" clip-rule="evenodd" d="M192.283 14.4994C191.947 15.2772 190.012 16.7464 189.158 16.93C185.775 17.6573 183.608 16.0381 182.473 14.1957C182.304 13.9203 181.993 13.1689 181.937 12.9776C181.497 11.4672 181.699 9.18262 183.012 8C182.616 9.12442 182.559 10.4306 182.767 11.2796C182.893 11.7931 183.277 12.6892 183.662 13.253C184.362 14.2801 184.805 14.5296 185.704 15.0748C186.109 15.3204 186.543 15.5172 186.731 15.5714C187.583 15.8244 189.382 16.4916 192.283 14.4994Z" fill="black"/>
<path d="M208.99 19.9997C208.99 24.7535 211.753 28.8618 215.759 30.8086L210.03 15.1119C209.363 16.6056 208.99 18.2585 208.99 19.9997ZM229.107 19.3936C229.107 17.9093 228.574 16.8814 228.117 16.0813C227.508 15.092 226.937 14.2542 226.937 13.2649C226.937 12.1609 227.775 11.1332 228.954 11.1332C229.007 11.1332 229.058 11.1398 229.11 11.1428C226.973 9.18523 224.126 7.99003 221 7.99003C216.804 7.99003 213.113 10.1428 210.965 13.4034C211.247 13.4119 211.513 13.4178 211.738 13.4178C212.994 13.4178 214.939 13.2654 214.939 13.2654C215.586 13.2272 215.663 14.1781 215.016 14.2547C215.016 14.2547 214.365 14.3312 213.641 14.3692L218.015 27.3782L220.643 19.4955L218.772 14.3687C218.125 14.3308 217.512 14.2542 217.512 14.2542C216.865 14.2163 216.941 13.2268 217.588 13.2649C217.588 13.2649 219.572 13.4174 220.752 13.4174C222.008 13.4174 223.952 13.2649 223.952 13.2649C224.6 13.2268 224.676 14.1777 224.029 14.2542C224.029 14.2542 223.377 14.3308 222.655 14.3687L226.995 27.2792L228.193 23.2761C228.712 21.6149 229.107 20.4218 229.107 19.3936ZM221.21 21.0502L217.607 31.5212C218.683 31.8374 219.821 32.0104 221 32.0104C222.398 32.0104 223.739 31.7686 224.988 31.3296C224.956 31.2782 224.926 31.2236 224.902 31.1642L221.21 21.0502ZM231.538 14.2375C231.589 14.6201 231.619 15.0308 231.619 15.4725C231.619 16.6912 231.391 18.0613 230.705 19.7743L227.037 30.381C230.607 28.2989 233.009 24.4306 233.009 19.9999C233.009 17.9118 232.476 15.9483 231.538 14.2375ZM221 6C213.28 6 207 12.2802 207 19.9997C207 27.72 213.28 34 221 34C228.719 34 235 27.72 235 19.9997C235 12.2802 228.719 6 221 6ZM221 33.3583C213.634 33.3583 207.642 27.3656 207.642 19.9997C207.642 12.6342 213.634 6.64194 221 6.64194C228.365 6.64194 234.357 12.6342 234.357 19.9997C234.357 27.3656 228.365 33.3583 221 33.3583Z" fill="#464342"/>
<defs>
<clipPath id="clip0_980_82">
<rect width="24" height="34.2857" fill="white" transform="translate(8.5 3)"/>
</clipPath>
<clipPath id="clip1_980_82">
<rect width="24" height="33.8438" fill="white" transform="translate(48.5 3.07812)"/>
</clipPath>
</defs>
</svg>
